<svg width="1200" height="760" xmlns="http://www.w3.org/2000/svg"><rect width="1200" height="760" fill="#0f172a"/><text x="600" y="70" text-anchor="middle" font-size="18" font-family="Arial" fill="#38bdf8">ESP32 IOT PROJECT</text><text x="600" y="120" text-anchor="middle" font-size="42" font-family="Arial" fill="#f8fafc" font-weight="bold">Smart Servo Dashboard</text><text x="600" y="155" text-anchor="middle" font-size="20" font-family="Arial" fill="#cbd5e1">Control a servo motor wirelessly through a browser-based interface.</text><rect x="80" y="220" width="340" height="390" rx="22" fill="#1e293b" stroke="#334155"/><text x="120" y="270" font-size="26" font-family="Arial" fill="#f8fafc" font-weight="bold">Servo Control</text><text x="250" y="380" text-anchor="middle" font-size="92" font-family="Arial" fill="#f8fafc" font-weight="bold">90</text><text x="250" y="420" text-anchor="middle" font-size="20" font-family="Arial" fill="#94a3b8">degrees</text><line x1="130" y1="470" x2="370" y2="470" stroke="#64748b" stroke-width="10" stroke-linecap="round"/><circle cx="250" cy="470" r="18" fill="#38bdf8"/><rect x="110" y="520" width="85" height="45" rx="12" fill="#38bdf8"/><text x="152" y="550" text-anchor="middle" font-size="16" font-family="Arial" fill="#082f49" font-weight="bold">Lock</text><rect x="208" y="520" width="85" height="45" rx="12" fill="#38bdf8"/><text x="250" y="550" text-anchor="middle" font-size="16" font-family="Arial" fill="#082f49" font-weight="bold">Neutral</text><rect x="305" y="520" width="85" height="45" rx="12" fill="#38bdf8"/><text x="348" y="550" text-anchor="middle" font-size="16" font-family="Arial" fill="#082f49" font-weight="bold">Unlock</text><rect x="455" y="220" width="300" height="390" rx="22" fill="#1e293b" stroke="#334155"/><text x="495" y="270" font-size="26" font-family="Arial" fill="#f8fafc" font-weight="bold">Device Status</text><text x="495" y="330" font-size="20" font-family="Arial" fill="#f8fafc">Status: Online</text><text x="495" y="380" font-size="20" font-family="Arial" fill="#f8fafc">IP: 192.168.1.25</text><text x="495" y="430" font-size="20" font-family="Arial" fill="#f8fafc">Servo: 90°</text><rect x="790" y="220" width="330" height="390" rx="22" fill="#1e293b" stroke="#334155"/><text x="830" y="270" font-size="26" font-family="Arial" fill="#f8fafc" font-weight="bold">Activity Log</text><text x="830" y="330" font-size="18" font-family="Arial" fill="#cbd5e1">10:21 - Dashboard loaded</text><text x="830" y="370" font-size="18" font-family="Arial" fill="#cbd5e1">10:22 - Connected to ESP32</text><text x="830" y="410" font-size="18" font-family="Arial" fill="#cbd5e1">10:23 - Servo angle updated</text></svg>